<svg width="146" height="24" viewBox="0 0 146 24" fill="none" xmlns="http://www.w3.org/2000/svg">
<path d="M0.00800014 23V0.599998H3.432L13.224 16.952H11.432L21.064 0.599998H24.488L24.52 23H20.584L20.552 6.776H21.384L13.192 20.44H11.336L3.016 6.776H3.976V23H0.00800014ZM34.2825 17.72L34.0585 12.792L45.8025 0.599998H50.4745L40.7145 10.968L38.4105 13.496L34.2825 17.72ZM30.5705 23V0.599998H34.7305V23H30.5705ZM46.1865 23L37.6105 12.792L40.3625 9.752L51.0505 23H46.1865ZM60.3583 23.32C58.6089 23.32 56.9343 23.0747 55.3343 22.584C53.7343 22.072 52.4649 21.4213 51.5263 20.632L52.9663 17.4C53.8623 18.104 54.9716 18.6907 56.2943 19.16C57.6169 19.6293 58.9716 19.864 60.3583 19.864C61.5316 19.864 62.4809 19.736 63.2063 19.48C63.9316 19.224 64.4649 18.8827 64.8063 18.456C65.1476 18.008 65.3183 17.5067 65.3183 16.952C65.3183 16.2693 65.0729 15.7253 64.5823 15.32C64.0916 14.8933 63.4516 14.5627 62.6623 14.328C61.8943 14.072 61.0303 13.8373 60.0703 13.624C59.1316 13.4107 58.1823 13.1653 57.2223 12.888C56.2836 12.5893 55.4196 12.216 54.6302 11.768C53.8623 11.2987 53.2329 10.68 52.7423 9.912C52.2516 9.144 52.0063 8.16267 52.0063 6.968C52.0063 5.752 52.3263 4.64267 52.9663 3.64C53.6276 2.616 54.6196 1.80533 55.9423 1.208C57.2863 0.589332 58.9823 0.279999 61.0303 0.279999C62.3743 0.279999 63.7076 0.450666 65.0303 0.792C66.3529 1.13333 67.5049 1.624 68.4862 2.264L67.1743 5.496C66.1716 4.89867 65.1369 4.46133 64.0703 4.184C63.0036 3.88533 61.9796 3.736 60.9983 3.736C59.8463 3.736 58.9076 3.87466 58.1823 4.152C57.4783 4.42933 56.9556 4.792 56.6143 5.24C56.2943 5.688 56.1343 6.2 56.1343 6.776C56.1343 7.45867 56.3689 8.01333 56.8383 8.44C57.3289 8.84533 57.9583 9.16533 58.7263 9.4C59.5156 9.63467 60.3903 9.86933 61.3503 10.104C62.3103 10.3173 63.2596 10.5627 64.1983 10.84C65.1583 11.1173 66.0223 11.48 66.7903 11.928C67.5796 12.376 68.2089 12.984 68.6783 13.752C69.1689 14.52 69.4143 15.4907 69.4143 16.664C69.4143 17.8587 69.0836 18.968 68.4223 19.992C67.7823 20.9947 66.7903 21.8053 65.4463 22.424C64.1023 23.0213 62.4063 23.32 60.3583 23.32Z" fill="white"/>
<path d="M79.896 20.08C79.064 20.08 78.2747 19.9413 77.528 19.664C76.792 19.376 76.2213 19.008 75.816 18.56L76.184 17.952C76.568 18.3467 77.0907 18.6827 77.752 18.96C78.424 19.2267 79.1333 19.36 79.88 19.36C80.6267 19.36 81.2347 19.264 81.704 19.072C82.184 18.8693 82.536 18.6027 82.76 18.272C82.9947 17.9413 83.112 17.5733 83.112 17.168C83.112 16.688 82.984 16.304 82.728 16.016C82.472 15.728 82.136 15.4987 81.72 15.328C81.304 15.1573 80.8507 15.0133 80.36 14.896C79.8693 14.7787 79.3733 14.656 78.872 14.528C78.3707 14.3893 77.912 14.2133 77.496 14C77.08 13.7867 76.744 13.4987 76.488 13.136C76.2427 12.7627 76.12 12.2827 76.12 11.696C76.12 11.1627 76.2587 10.672 76.536 10.224C76.8133 9.776 77.2453 9.41333 77.832 9.136C78.4187 8.85867 79.1707 8.72 80.088 8.72C80.7067 8.72 81.3147 8.81067 81.912 8.992C82.52 9.17333 83.0373 9.41867 83.464 9.728L83.16 10.384C82.6907 10.064 82.184 9.82933 81.64 9.68C81.1067 9.52 80.5893 9.44 80.088 9.44C79.3733 9.44 78.7813 9.54133 78.312 9.744C77.8427 9.94667 77.496 10.2187 77.272 10.56C77.048 10.8907 76.936 11.264 76.936 11.68C76.936 12.16 77.0587 12.544 77.304 12.832C77.56 13.12 77.896 13.3493 78.312 13.52C78.728 13.6907 79.1867 13.8347 79.688 13.952C80.1893 14.0693 80.6853 14.1973 81.176 14.336C81.6667 14.464 82.12 14.6347 82.536 14.848C82.952 15.0613 83.288 15.3493 83.544 15.712C83.8 16.0747 83.928 16.544 83.928 17.12C83.928 17.6427 83.784 18.1333 83.496 18.592C83.208 19.04 82.7653 19.4027 82.168 19.68C81.5813 19.9467 80.824 20.08 79.896 20.08ZM86.446 20V11.648H87.246V20H86.446ZM86.846 9.616C86.6647 9.616 86.51 9.552 86.382 9.424C86.254 9.296 86.19 9.14667 86.19 8.976C86.19 8.79467 86.254 8.64 86.382 8.512C86.51 8.384 86.6647 8.32 86.846 8.32C87.038 8.32 87.1927 8.384 87.31 8.512C87.438 8.62933 87.502 8.77867 87.502 8.96C87.502 9.14133 87.438 9.296 87.31 9.424C87.1927 9.552 87.038 9.616 86.846 9.616ZM92.7299 20.064C92.0365 20.064 91.3859 19.9627 90.7779 19.76C90.1805 19.5573 89.7165 19.3013 89.3859 18.992L89.7539 18.352C90.0739 18.6293 90.5005 18.8693 91.0339 19.072C91.5672 19.264 92.1432 19.36 92.7619 19.36C93.6365 19.36 94.2659 19.216 94.6499 18.928C95.0339 18.64 95.2259 18.2613 95.2259 17.792C95.2259 17.4507 95.1245 17.184 94.9219 16.992C94.7299 16.7893 94.4685 16.6347 94.1379 16.528C93.8072 16.4213 93.4445 16.336 93.0499 16.272C92.6552 16.1973 92.2605 16.1173 91.8659 16.032C91.4712 15.9467 91.1085 15.824 90.7779 15.664C90.4472 15.504 90.1805 15.2853 89.9779 15.008C89.7859 14.72 89.6899 14.3413 89.6899 13.872C89.6899 13.4453 89.8072 13.0613 90.0419 12.72C90.2765 12.3787 90.6285 12.1067 91.0979 11.904C91.5672 11.6907 92.1539 11.584 92.8579 11.584C93.3805 11.584 93.9032 11.6587 94.4259 11.808C94.9592 11.9573 95.3912 12.1547 95.7219 12.4L95.3539 13.04C95.0019 12.7733 94.6072 12.5813 94.1699 12.464C93.7325 12.3467 93.2899 12.288 92.8419 12.288C92.0312 12.288 91.4339 12.4373 91.0499 12.736C90.6765 13.0347 90.4899 13.408 90.4899 13.856C90.4899 14.208 90.5859 14.4907 90.7779 14.704C90.9805 14.9067 91.2472 15.0667 91.5779 15.184C91.9085 15.2907 92.2712 15.3813 92.6659 15.456C93.0605 15.52 93.4552 15.5947 93.8499 15.68C94.2445 15.7653 94.6072 15.888 94.9379 16.048C95.2685 16.1973 95.5299 16.4107 95.7219 16.688C95.9245 16.9547 96.0259 17.3173 96.0259 17.776C96.0259 18.2347 95.8979 18.6347 95.6419 18.976C95.3965 19.3173 95.0285 19.584 94.5379 19.776C94.0472 19.968 93.4445 20.064 92.7299 20.064ZM100.691 20.064C99.9545 20.064 99.3892 19.8613 98.9945 19.456C98.6105 19.0507 98.4185 18.496 98.4185 17.792V9.824H99.2185V17.712C99.2185 18.2453 99.3518 18.656 99.6185 18.944C99.8852 19.232 100.269 19.376 100.771 19.376C101.293 19.376 101.725 19.2213 102.067 18.912L102.403 19.472C102.189 19.6747 101.928 19.824 101.619 19.92C101.32 20.016 101.011 20.064 100.691 20.064ZM96.8825 12.336V11.648H101.875V12.336H96.8825ZM107.729 20.064C106.886 20.064 106.139 19.8827 105.489 19.52C104.849 19.1573 104.342 18.656 103.969 18.016C103.606 17.376 103.425 16.6453 103.425 15.824C103.425 14.992 103.595 14.2613 103.937 13.632C104.289 12.992 104.769 12.4907 105.377 12.128C105.985 11.7653 106.667 11.584 107.425 11.584C108.182 11.584 108.859 11.76 109.457 12.112C110.065 12.464 110.539 12.96 110.881 13.6C111.233 14.2293 111.409 14.96 111.409 15.792C111.409 15.824 111.403 15.8613 111.393 15.904C111.393 15.936 111.393 15.9733 111.393 16.016H104.017V15.392H110.961L110.641 15.696C110.651 15.0453 110.513 14.464 110.225 13.952C109.947 13.4293 109.569 13.024 109.089 12.736C108.609 12.4373 108.054 12.288 107.425 12.288C106.806 12.288 106.251 12.4373 105.761 12.736C105.281 13.024 104.902 13.4293 104.625 13.952C104.347 14.464 104.209 15.0507 104.209 15.712V15.856C104.209 16.5387 104.358 17.1467 104.657 17.68C104.966 18.2027 105.387 18.6133 105.921 18.912C106.454 19.2 107.062 19.344 107.745 19.344C108.278 19.344 108.774 19.248 109.233 19.056C109.702 18.864 110.097 18.5707 110.417 18.176L110.881 18.704C110.518 19.152 110.059 19.4933 109.505 19.728C108.961 19.952 108.369 20.064 107.729 20.064ZM124.284 11.584C124.956 11.584 125.537 11.7173 126.028 11.984C126.529 12.24 126.918 12.6347 127.196 13.168C127.473 13.6907 127.612 14.3413 127.612 15.12V20H126.812V15.184C126.812 14.2453 126.582 13.5307 126.124 13.04C125.665 12.5493 125.025 12.304 124.204 12.304C123.574 12.304 123.03 12.4373 122.572 12.704C122.113 12.9707 121.761 13.344 121.516 13.824C121.27 14.304 121.148 14.88 121.148 15.552V20H120.348V15.184C120.348 14.2453 120.118 13.5307 119.66 13.04C119.201 12.5493 118.561 12.304 117.74 12.304C117.11 12.304 116.566 12.4373 116.108 12.704C115.649 12.9707 115.297 13.344 115.052 13.824C114.806 14.304 114.684 14.88 114.684 15.552V20H113.884V11.648H114.652V13.952L114.539 13.696C114.785 13.0453 115.196 12.5333 115.772 12.16C116.348 11.776 117.041 11.584 117.852 11.584C118.684 11.584 119.382 11.7973 119.948 12.224C120.524 12.64 120.886 13.264 121.036 14.096L120.764 13.984C120.988 13.2693 121.409 12.6933 122.028 12.256C122.646 11.808 123.398 11.584 124.284 11.584ZM136.179 20V18.096L136.147 17.808V14.672C136.147 13.8933 135.933 13.3013 135.507 12.896C135.091 12.4907 134.477 12.288 133.667 12.288C133.091 12.288 132.552 12.3893 132.051 12.592C131.56 12.784 131.139 13.0347 130.787 13.344L130.387 12.768C130.803 12.3947 131.304 12.1067 131.891 11.904C132.477 11.6907 133.091 11.584 133.731 11.584C134.765 11.584 135.56 11.8453 136.115 12.368C136.669 12.8907 136.947 13.6693 136.947 14.704V20H136.179ZM133.171 20.064C132.552 20.064 132.013 19.968 131.555 19.776C131.107 19.5733 130.76 19.2907 130.515 18.928C130.28 18.5653 130.163 18.1493 130.163 17.68C130.163 17.2533 130.259 16.8693 130.451 16.528C130.653 16.176 130.984 15.8933 131.443 15.68C131.901 15.456 132.515 15.344 133.283 15.344H136.355V15.968H133.299C132.435 15.968 131.827 16.128 131.475 16.448C131.133 16.768 130.963 17.168 130.963 17.648C130.963 18.1813 131.165 18.608 131.571 18.928C131.976 19.248 132.547 19.408 133.283 19.408C133.987 19.408 134.579 19.248 135.059 18.928C135.549 18.608 135.912 18.144 136.147 17.536L136.371 18.08C136.147 18.688 135.763 19.1733 135.219 19.536C134.685 19.888 134.003 20.064 133.171 20.064ZM142.355 20.064C141.662 20.064 141.011 19.9627 140.403 19.76C139.806 19.5573 139.342 19.3013 139.011 18.992L139.379 18.352C139.699 18.6293 140.126 18.8693 140.659 19.072C141.192 19.264 141.768 19.36 142.387 19.36C143.262 19.36 143.891 19.216 144.275 18.928C144.659 18.64 144.851 18.2613 144.851 17.792C144.851 17.4507 144.75 17.184 144.547 16.992C144.355 16.7893 144.094 16.6347 143.763 16.528C143.432 16.4213 143.07 16.336 142.675 16.272C142.28 16.1973 141.886 16.1173 141.491 16.032C141.096 15.9467 140.734 15.824 140.403 15.664C140.072 15.504 139.806 15.2853 139.603 15.008C139.411 14.72 139.315 14.3413 139.315 13.872C139.315 13.4453 139.432 13.0613 139.667 12.72C139.902 12.3787 140.254 12.1067 140.723 11.904C141.192 11.6907 141.779 11.584 142.483 11.584C143.006 11.584 143.528 11.6587 144.051 11.808C144.584 11.9573 145.016 12.1547 145.347 12.4L144.979 13.04C144.627 12.7733 144.232 12.5813 143.795 12.464C143.358 12.3467 142.915 12.288 142.467 12.288C141.656 12.288 141.059 12.4373 140.675 12.736C140.302 13.0347 140.115 13.408 140.115 13.856C140.115 14.208 140.211 14.4907 140.403 14.704C140.606 14.9067 140.872 15.0667 141.203 15.184C141.534 15.2907 141.896 15.3813 142.291 15.456C142.686 15.52 143.08 15.5947 143.475 15.68C143.87 15.7653 144.232 15.888 144.563 16.048C144.894 16.1973 145.155 16.4107 145.347 16.688C145.55 16.9547 145.651 17.3173 145.651 17.776C145.651 18.2347 145.523 18.6347 145.267 18.976C145.022 19.3173 144.654 19.584 144.163 19.776C143.672 19.968 143.07 20.064 142.355 20.064Z" fill="white"/>
</svg>
